# xmcd CD database file
#
# Track frame offsets:
#	150
#	13467
#	25805
#	39652
#	51590
#	62747
#	76842
#	89950
#	103692
#	116467
#	130287
#	141230
#	153297
#	164937
#	179517
#	191125
#	204422
#	215397
#	224992
#	237795
#	249005
#	260335
#	273065
#	283905
#	294860
#
# Disc length: 4081 seconds
#
# Revision: 0
# Processed by: cddbd v1.5.2PL0 Copyright (c) Steve Scherf et al.
# Submitted via: CDex 1.99.1
#
DISCID=870fef19
DTITLE=Roosevelt Sykes - Roosevelt Sykes Complete Recorded Works Vol. 10
DYEAR=1900
DGENRE=Blues
TTITLE0=Fine And Brown
TTITLE1=Lucky Blues
TTITLE2=Raining In My Heart
TTITLE3=Heavy Heart
TTITLE4=Walkin' This Boogie
TTITLE5=Four O'Clock Bllues
TTITLE6=Hot Boogie
TTITLE7=Something Like That
TTITLE8=Security Blues
TTITLE9=Toy Piano Blues
TTITLE10=Listen To My Song
TTITLE11=Come Back Baby
TTITLE12=Ruthie Lee
TTITLE13=Tell Me True
TTITLE14=Boogie Sykes
TTITLE15=You Can't Be Lucky All The Time
TTITLE16=Sweet Old Chicago
TTITLE17=Blood Stains
TTITLE18=Hush Oh Hush
TTITLE19=I'm Tired
TTITLE20=Crazy Fox
TTITLE21=She's Jail Bait
TTITLE22=Sputnik Baby
TTITLE23=Joe "Boogie" Evans (1947/48) Lowland Blues
TTITLE24=Joe "Boogie" Evans (1947/48) Savoy Boogie
EXTD=
EXTT0=
EXTT1=
EXTT2=
EXTT3=
EXTT4=
EXTT5=
EXTT6=
EXTT7=
EXTT8=
EXTT9=
EXTT10=
EXTT11=
EXTT12=
EXTT13=
EXTT14=
EXTT15=
EXTT16=
EXTT17=
EXTT18=
EXTT19=
EXTT20=
EXTT21=
EXTT22=
EXTT23=
EXTT24=
PLAYORDER=
